# xmcd
#
# Track frame offsets: 
#        150
#        13163
#        25977
#        41091
#        55967
#        69905
#        83523
#        97606
#        110095
#        124006
#        137505
#        150605
#        164742
#        178581
#        192742
#        206821
#        219886
#        233432
#        245936
#        259925
#        273838
#        286842
#
# Disc length: 4009 seconds
#
# Revision: 1
# Processed by: cddbd v1.5.2PL0 Copyright (c) Steve Scherf et al.
# Submitted via: ExactAudioCopyFreeDBPlugin 1.0
#
DISCID=390fa716
DTITLE=Various Artist - Rev. Johnny Blakey and Rev. M. L. Gipson in Chronologic
DTITLE=al Order (1927-1929)
DYEAR=1995
DGENRE=Gospel
TTITLE0=Rev. Johnny Blakey - On This Rock I Will Build My Church
TTITLE1=Rev. Johnny Blakey - The Scarlet Thread in the Window
TTITLE2=Rev. Johnny Blakey - Settling Time
TTITLE3=Rev. Johnny Blakey - The Sainted Devil
TTITLE4=Rev. Johnny Blakey - Fourteen Steps to Hell
TTITLE5=Rev. Johnny Blakey - Loose Him and Let Him Go
TTITLE6=Rev. Johnny Blakey - The Coming King
TTITLE7=Rev. Johnny Blakey - Let Not Your Heart Be Troubled
TTITLE8=Rev. Johnny Blakey - From the Parlor to the Pig Pen
TTITLE9=Rev. Johnny Blakey - The Horse Paweth in the Valley
TTITLE10=Rev. Johnny Blakey - Let the Light Shine on Me
TTITLE11=Rev. Johnny Blakey - I'm Trying to Make Heaven My Home
TTITLE12=Rev. Johnny Blakey - I'm on My Way to Heaven
TTITLE13=Rev. Johnny Blakey - Warming by the Devil's Fire
TTITLE14=Rev. M. L. Gipson - Where the Black Man Came From
TTITLE15=Rev. M. L. Gipson - Will the Circle Be Unbroken
TTITLE16=Rev. M. L. Gipson - Sympathetic Christ
TTITLE17=Rev. M. L. Gipson - John Done Saw That Holy Number
TTITLE18=Rev. M. L. Gipson - God Will Protect His Own
TTITLE19=Rev. M. L. Gipson - Judgment Is Coming Afterwhile
TTITLE20=Rev. M. L. Gipson - The Church
TTITLE21=Rev. M. L. Gipson - The Way My Lord Leave Me
EXTD=
EXTT0=
EXTT1=
EXTT2=
EXTT3=
EXTT4=
EXTT5=
EXTT6=
EXTT7=
EXTT8=
EXTT9=
EXTT10=
EXTT11=
EXTT12=
EXTT13=
EXTT14=
EXTT15=
EXTT16=
EXTT17=
EXTT18=
EXTT19=
EXTT20=
EXTT21=
PLAYORDER=
